<svg xmlns="http://www.w3.org/2000/svg" version="1.1" xmlns:xlink="http://www.w3.org/1999/xlink" xmlns:svgjs="http://svgjs.dev/svgjs" width="1000" height="1000" viewBox="0 0 1000 1000"><rect width="1000" height="1000" fill="#d2526c"></rect><g transform="matrix(0.7,0,0,0.7,149.90044910179654,149.90044910179637)"><svg viewBox="0 0 334 334" data-background-color="#d2526c" preserveAspectRatio="xMidYMid meet" height="1000" width="1000" xmlns="http://www.w3.org/2000/svg" xmlns:xlink="http://www.w3.org/1999/xlink"><g id="tight-bounds" transform="matrix(1,0,0,1,0.04749999999998522,0.04750000000001364)"><svg viewBox="0 0 333.90454557049503 333.90454557049503" height="333.90454557049503" width="333.90454557049503"><g><svg></svg></g><g><svg viewBox="0 0 333.90454557049503 333.90454557049503" height="333.90454557049503" width="333.90454557049503"><g><path d="M0 166.952c0-92.205 74.747-166.952 166.952-166.952 92.205 0 166.952 74.747 166.953 166.952 0 92.205-74.747 166.952-166.953 166.953-92.205 0-166.952-74.747-166.952-166.953zM166.952 316.63c82.665 0 149.677-67.013 149.678-149.678 0-82.665-67.013-149.677-149.678-149.677-82.665 0-149.677 67.013-149.677 149.677 0 82.665 67.013 149.677 149.677 149.678z" data-fill-palette-color="tertiary" fill="#ffffff" stroke="transparent"></path><ellipse rx="160.27418187383762" ry="160.27418187383762" cx="166.95227278524752" cy="166.95227278524752" fill="#ffffff" stroke="transparent" stroke-width="0" fill-opacity="1" data-fill-palette-color="tertiary"></ellipse></g><g transform="matrix(1,0,0,1,94.22661147568166,71.17305217166896)"><svg viewBox="0 0 145.4513226191317 191.55844122715712" height="191.55844122715712" width="145.4513226191317"><g><svg viewBox="0 0 145.4513226191317 191.55844122715712" height="191.55844122715712" width="145.4513226191317"><g><svg viewBox="0 0 145.4513226191317 191.55844122715712" height="191.55844122715712" width="145.4513226191317"><g><svg viewBox="0 0 145.4513226191317 191.55844122715712" height="191.55844122715712" width="145.4513226191317"><g id="textblocktransform"><svg viewBox="0 0 145.4513226191317 191.55844122715712" height="191.55844122715712" width="145.4513226191317" id="textblock"><g><svg viewBox="0 0 145.4513226191317 191.55844122715712" height="191.55844122715712" width="145.4513226191317"><g transform="matrix(1,0,0,1,0,0)"><svg width="145.4513226191317" viewBox="1.600000023841858 -35.95000076293945 30.600000381469727 40.29999923706055" height="191.55844122715712" data-palette-color="#8d021f"><path d="M12.1 4.35L12.1 4.35Q9.2 4.35 6.8 2.83 4.4 1.3 3-1.5 1.6-4.3 1.6-8.2L1.6-8.2Q1.6-12.05 2.8-15.98 4-19.9 6.1-23.48 8.2-27.05 11-29.88 13.8-32.7 16.98-34.33 20.15-35.95 23.5-35.95L23.5-35.95Q24-35.95 24.98-35.75 25.95-35.55 26.9-34.55L26.9-34.55Q26.6-34.6 26.23-34.63 25.85-34.65 25.45-34.65L25.45-34.65Q22.85-34.65 20.2-33.02 17.55-31.4 15.15-28.65 12.75-25.9 10.88-22.43 9-18.95 7.9-15.2 6.8-11.45 6.8-7.9L6.8-7.9Q6.8-5.3 7.5-3.05 8.2-0.8 9.75 0.58 11.3 1.95 13.85 1.95L13.85 1.95Q16.6 1.95 19 0.3 21.4-1.35 23.35-4.13 25.3-6.9 26.7-10.33 28.1-13.75 28.85-17.38 29.6-21 29.6-24.3L29.6-24.3Q29.6-25.75 29.4-27.43 29.2-29.1 28.73-30.3 28.25-31.5 27.35-31.5L27.35-31.5Q26.5-31.5 25.5-30.43 24.5-29.35 23.55-27.7 22.6-26.05 21.88-24.23 21.15-22.4 20.85-20.95L20.85-20.95Q19.15-21.3 18.43-22.05 17.7-22.8 17.7-23.85L17.7-23.85Q17.7-25.2 18.65-26.85 19.6-28.5 21.13-30.03 22.65-31.55 24.33-32.55 26-33.55 27.45-33.55L27.45-33.55Q28.95-33.55 29.88-32.48 30.8-31.4 31.3-29.7 31.8-28 32-26.08 32.2-24.15 32.2-22.5L32.2-22.5Q32.2-17.4 30.95-13.18 29.7-8.95 27.58-5.7 25.45-2.45 22.83-0.2 20.2 2.05 17.43 3.2 14.65 4.35 12.1 4.35Z" opacity="1" transform="matrix(1,0,0,1,0,0)" fill="#8d021f" class="undefined-text-0" data-fill-palette-color="quaternary" id="text-0"></path></svg></g></svg></g></svg></g></svg></g><g></g></svg></g></svg></g></svg></g></svg></g><defs></defs></svg><rect width="333.90454557049503" height="333.90454557049503" fill="none" stroke="none" visibility="hidden"></rect></g></svg></g></svg>